<mxfile host="65bd71144e">
    <diagram id="u0tkLWldY95R6i96ruzb" name="PÃ¡gina-1">
        <mxGraphModel dx="728" dy="451" grid="1" gridSize="10" guides="1" tooltips="1" connect="1" arrows="1" fold="1" page="1" pageScale="1" pageWidth="827" pageHeight="1169" math="0" shadow="0">
            <root>
                <mxCell id="0"/>
                <mxCell id="1" parent="0"/>
                <mxCell id="2" value="comprobar_condicion" style="rounded=0;whiteSpace=wrap;html=1;" vertex="1" parent="1">
                    <mxGeometry x="230" y="270" width="120" height="60" as="geometry"/>
                </mxCell>
                <mxCell id="3" value="condicion&lt;br&gt;entonces&lt;br&gt;si_no" style="rounded=0;whiteSpace=wrap;html=1;" vertex="1" parent="1">
                    <mxGeometry x="230" y="220" width="120" height="50" as="geometry"/>
                </mxCell>
                <mxCell id="4" value="Si" style="rounded=0;whiteSpace=wrap;html=1;fillColor=#a20025;fontColor=#ffffff;strokeColor=#6F0000;" vertex="1" parent="1">
                    <mxGeometry x="230" y="190" width="120" height="30" as="geometry"/>
                </mxCell>
                <mxCell id="5" value="agregarInstruction" style="rounded=0;whiteSpace=wrap;html=1;" vertex="1" parent="1">
                    <mxGeometry x="210" y="90" width="120" height="40" as="geometry"/>
                </mxCell>
                <mxCell id="6" value="self.instruciones" style="rounded=0;whiteSpace=wrap;html=1;" vertex="1" parent="1">
                    <mxGeometry x="210" y="50" width="120" height="40" as="geometry"/>
                </mxCell>
                <mxCell id="7" value="Bloque" style="rounded=0;whiteSpace=wrap;html=1;fillColor=#0050ef;fontColor=#ffffff;strokeColor=#001DBC;" vertex="1" parent="1">
                    <mxGeometry x="210" y="20" width="120" height="30" as="geometry"/>
                </mxCell>
                <mxCell id="8" value="mensaje" style="rounded=0;whiteSpace=wrap;html=1;" vertex="1" parent="1">
                    <mxGeometry x="410" y="55" width="120" height="30" as="geometry"/>
                </mxCell>
                <mxCell id="9" value="Mostrar" style="rounded=0;whiteSpace=wrap;html=1;fillColor=#60a917;fontColor=#ffffff;strokeColor=#2D7600;" vertex="1" parent="1">
                    <mxGeometry x="410" y="25" width="120" height="30" as="geometry"/>
                </mxCell>
                <mxCell id="10" value="bucle" style="rounded=0;whiteSpace=wrap;html=1;" vertex="1" parent="1">
                    <mxGeometry x="414" y="260" width="120" height="30" as="geometry"/>
                </mxCell>
                <mxCell id="11" value="condicion&lt;br&gt;bloque" style="rounded=0;whiteSpace=wrap;html=1;" vertex="1" parent="1">
                    <mxGeometry x="414" y="220" width="120" height="40" as="geometry"/>
                </mxCell>
                <mxCell id="12" value="MientrasQue" style="rounded=0;whiteSpace=wrap;html=1;fillColor=#6a00ff;fontColor=#ffffff;strokeColor=#3700CC;" vertex="1" parent="1">
                    <mxGeometry x="414" y="190" width="120" height="30" as="geometry"/>
                </mxCell>
                <mxCell id="13" value="mostrar" style="rounded=0;whiteSpace=wrap;html=1;" vertex="1" parent="1">
                    <mxGeometry x="410" y="85" width="120" height="30" as="geometry"/>
                </mxCell>
            </root>
        </mxGraphModel>
    </diagram>
</mxfile>